<svg width="20" height="20" viewBox="0 0 20 20" fill="none" xmlns="http://www.w3.org/2000/svg">
<path d="M7.97231 1H2.02769C1.46092 1 1 1.46092 1 2.02769V7.97231C1 8.53908 1.46092 9 2.02769 9H7.97231C8.53908 9 9 8.53908 9 7.97231V2.02769C9 1.46092 8.53908 1 7.97231 1ZM8.38462 7.97231C8.38462 8.19969 8.19969 8.38462 7.97231 8.38462H2.02769C1.80031 8.38462 1.61538 8.19969 1.61538 7.97231V2.02769C1.61538 1.80031 1.80031 1.61538 2.02769 1.61538H7.97231C8.19969 1.61538 8.38462 1.80031 8.38462 2.02769V7.97231Z" fill="#2D2D2D" stroke="#2D2D2D" stroke-width="0.6"/>
<path d="M17.9723 1H12.0277C11.4609 1 11 1.46092 11 2.02769V7.97231C11 8.53908 11.4609 9 12.0277 9H17.9723C18.5391 9 19 8.53908 19 7.97231V2.02769C19 1.46092 18.5391 1 17.9723 1ZM18.3846 7.97231C18.3846 8.19969 18.1997 8.38462 17.9723 8.38462H12.0277C11.8003 8.38462 11.6154 8.19969 11.6154 7.97231V2.02769C11.6154 1.80031 11.8003 1.61538 12.0277 1.61538H17.9723C18.1997 1.61538 18.3846 1.80031 18.3846 2.02769V7.97231Z" fill="#2D2D2D" stroke="#2D2D2D" stroke-width="0.6"/>
<path d="M7.97231 11H2.02769C1.46092 11 1 11.4609 1 12.0277V17.9723C1 18.5391 1.46092 19 2.02769 19H7.97231C8.53908 19 9 18.5391 9 17.9723V12.0277C9 11.4609 8.53908 11 7.97231 11ZM8.38462 17.9723C8.38462 18.1997 8.19969 18.3846 7.97231 18.3846H2.02769C1.80031 18.3846 1.61538 18.1997 1.61538 17.9723V12.0277C1.61538 11.8003 1.80031 11.6154 2.02769 11.6154H7.97231C8.19969 11.6154 8.38462 11.8003 8.38462 12.0277V17.9723Z" fill="#2D2D2D" stroke="#2D2D2D" stroke-width="0.6"/>
<path d="M18.6923 14.6923H15.3077V11.3077C15.3077 11.1375 15.1702 11 15 11C14.8298 11 14.6923 11.1375 14.6923 11.3077V14.6923H11.3077C11.1375 14.6923 11 14.8298 11 15C11 15.1702 11.1375 15.3077 11.3077 15.3077H14.6923V18.6923C14.6923 18.8625 14.8298 19 15 19C15.1702 19 15.3077 18.8625 15.3077 18.6923V15.3077H18.6923C18.8625 15.3077 19 15.1702 19 15C19 14.8298 18.8625 14.6923 18.6923 14.6923Z" fill="#2D2D2D" stroke="#2D2D2D" stroke-width="0.6"/>
</svg>
