<svg width="28" height="28" viewBox="0 0 28 28" fill="none" xmlns="http://www.w3.org/2000/svg">
<path d="M20.364 19.3696L14.9943 14L20.3639 8.63039C20.6385 8.3558 20.6385 7.91061 20.364 7.63604C20.0894 7.36144 19.6442 7.36145 19.3696 7.63604L14 13.0056L8.6304 7.63604C8.35581 7.36145 7.91064 7.36144 7.63604 7.63604C7.36147 7.91061 7.36146 8.3558 7.63605 8.63039L13.0057 14L7.63603 19.3696C7.36146 19.6442 7.36144 20.0894 7.63604 20.364C7.91061 20.6385 8.3558 20.6385 8.63037 20.364L14 14.9943L19.3696 20.364C19.6442 20.6385 20.0894 20.6385 20.364 20.364C20.6386 20.0894 20.6385 19.6442 20.364 19.3696Z" fill="#2D2D2D" stroke="#2D2D2D" stroke-width="0.4"/>
</svg>
