<svg width="20" height="20" viewBox="0 0 20 20" fill="none" xmlns="http://www.w3.org/2000/svg">
<path d="M17.6139 12.2961C17.3663 12.2961 17.1657 12.4978 17.1657 12.7466V16.7471C17.1648 17.4933 16.5632 18.098 15.8207 18.0987H3.24154C2.49903 18.098 1.89748 17.4933 1.89659 16.7471V5.00613C1.89748 4.26008 2.49903 3.65535 3.24154 3.65447H7.22204C7.46967 3.65447 7.67039 3.45278 7.67039 3.20392C7.67039 2.95524 7.46967 2.75337 7.22204 2.75337H3.24154C2.00414 2.75478 1.0014 3.76254 1 5.00613V16.7472C1.0014 17.9908 2.00414 18.9986 3.24154 19H15.8207C17.0581 18.9986 18.0608 17.9908 18.0622 16.7472V12.7466C18.0622 12.4978 17.8615 12.2961 17.6139 12.2961Z" fill="#2D2D2D"/>
<path d="M17.8849 1.59386C17.097 0.802047 15.8196 0.802047 15.0318 1.59386L7.0337 9.63198C6.97889 9.68707 6.93931 9.75536 6.91864 9.83034L5.86684 13.6465C5.82359 13.8029 5.8675 13.9705 5.98168 14.0854C6.09603 14.2002 6.26281 14.2443 6.41848 14.201L10.2156 13.1438C10.2902 13.1231 10.3581 13.0833 10.413 13.0282L18.4109 4.98989C19.1976 4.19755 19.1976 2.91489 18.4109 2.12255L17.8849 1.59386ZM8.01048 9.92485L14.5564 3.34608L16.6674 5.46772L10.1213 12.0465L8.01048 9.92485ZM7.58875 10.7753L9.27535 12.4705L6.9424 13.1201L7.58875 10.7753ZM17.777 4.35278L17.3016 4.83061L15.1903 2.7088L15.6659 2.23097C16.1035 1.79115 16.8131 1.79115 17.2508 2.23097L17.777 2.75966C18.2139 3.2 18.2139 3.91261 17.777 4.35278Z" fill="#2D2D2D"/>
<path d="M17.6139 12.2961C17.3663 12.2961 17.1657 12.4978 17.1657 12.7466V16.7471C17.1648 17.4933 16.5632 18.098 15.8207 18.0987H3.24154C2.49903 18.098 1.89748 17.4933 1.89659 16.7471V5.00613C1.89748 4.26008 2.49903 3.65535 3.24154 3.65447H7.22204C7.46967 3.65447 7.67039 3.45278 7.67039 3.20392C7.67039 2.95524 7.46967 2.75337 7.22204 2.75337H3.24154C2.00414 2.75478 1.0014 3.76254 1 5.00613V16.7472C1.0014 17.9908 2.00414 18.9986 3.24154 19H15.8207C17.0581 18.9986 18.0608 17.9908 18.0622 16.7472V12.7466C18.0622 12.4978 17.8615 12.2961 17.6139 12.2961Z" stroke="#2D2D2D" stroke-width="0.5"/>
<path d="M17.8849 1.59386C17.097 0.802047 15.8196 0.802047 15.0318 1.59386L7.0337 9.63198C6.97889 9.68707 6.93931 9.75536 6.91864 9.83034L5.86684 13.6465C5.82359 13.8029 5.8675 13.9705 5.98168 14.0854C6.09603 14.2002 6.26281 14.2443 6.41848 14.201L10.2156 13.1438C10.2902 13.1231 10.3581 13.0833 10.413 13.0282L18.4109 4.98989C19.1976 4.19755 19.1976 2.91489 18.4109 2.12255L17.8849 1.59386ZM8.01048 9.92485L14.5564 3.34608L16.6674 5.46772L10.1213 12.0465L8.01048 9.92485ZM7.58875 10.7753L9.27535 12.4705L6.9424 13.1201L7.58875 10.7753ZM17.777 4.35278L17.3016 4.83061L15.1903 2.7088L15.6659 2.23097C16.1035 1.79115 16.8131 1.79115 17.2508 2.23097L17.777 2.75966C18.2139 3.2 18.2139 3.91261 17.777 4.35278Z" stroke="#2D2D2D" stroke-width="0.5"/>
</svg>
