<svg width="20" height="20" viewBox="0 0 20 20" fill="none" xmlns="http://www.w3.org/2000/svg">
<path d="M15.8912 12.8515V16.5902C15.8912 17.9189 14.8475 19 13.5645 19H3.32674C2.04384 19 1 17.9189 1 16.5902V5.98696C1 4.65815 2.04384 3.57704 3.32674 3.57704H7.21321C7.53453 3.57704 7.79495 3.84688 7.79495 4.17955C7.79495 4.51234 7.53453 4.78206 7.21321 4.78206H3.32674C2.68523 4.78206 2.16337 5.32256 2.16337 5.98696V16.5902C2.16337 17.2546 2.68523 17.7951 3.32674 17.7951H13.5645C14.206 17.7951 14.7278 17.2546 14.7278 16.5902V12.8515C14.7278 12.5187 14.9883 12.249 15.3096 12.249C15.6308 12.249 15.8912 12.5187 15.8912 12.8515ZM17.6652 4.43068C17.7757 4.54447 17.8366 4.69545 17.8366 4.85573C17.8366 5.01612 17.7757 5.16699 17.6652 5.28078L15.3324 7.68164C15.1046 7.91617 15.1035 8.29768 15.3299 8.53363C15.4435 8.65213 15.5931 8.71144 15.7425 8.71144C15.8908 8.71144 16.039 8.65307 16.1525 8.53633L18.4853 6.13547C18.8172 5.79374 19 5.33938 19 4.85573C19 4.37207 18.8172 3.9176 18.4853 3.57598L16.1525 1.17512C15.9247 0.940591 15.5564 0.941767 15.3299 1.17783C15.1035 1.41389 15.1046 1.79528 15.3324 2.02982L17.6652 4.43068ZM16.4114 4.82701C16.4114 4.49422 16.1509 4.2245 15.8297 4.2245C13.7322 4.2245 11.7602 5.07049 10.277 6.60665C8.79374 8.14282 7.97692 10.1852 7.97692 12.3577V12.8096C7.97692 13.1422 8.23734 13.412 8.55866 13.412C8.87986 13.412 9.14028 13.1422 9.14028 12.8096V12.3577C9.14028 8.53739 12.1411 5.42941 15.8297 5.42941C16.1509 5.42941 16.4114 5.15969 16.4114 4.82701Z" fill="#2D2D2D" stroke="#2D2D2D" stroke-width="0.5"/>
</svg>
