<svg width="20" height="20" viewBox="0 0 20 20" fill="none" xmlns="http://www.w3.org/2000/svg">
<path d="M1 17.1022C1 18.1504 1.85329 19 2.89783 19H17.1022C18.1504 19 19 18.1467 19 17.1022V2.89783C19 1.84961 18.1467 1 17.1022 1H2.89783C1.84961 1 1 1.85329 1 2.89783V17.1022ZM17.1022 18.0989H2.89783C2.34982 18.0989 1.9011 17.6502 1.9011 17.1022V14.7299L5.31426 11.3167L8.2309 14.2333C8.40744 14.4099 8.69064 14.4099 8.86718 14.2333L14.134 8.96649L18.0989 12.9313V17.1022C18.0989 17.6502 17.6502 18.0989 17.1022 18.0989ZM2.89783 1.9011H17.1022C17.6502 1.9011 18.0989 2.34982 18.0989 2.89783V11.6551L14.4503 8.01022C14.2738 7.83367 13.9906 7.83367 13.8141 8.01022L8.5472 13.2771L5.63057 10.3604C5.45403 10.1839 5.17082 10.1839 4.99428 10.3604L1.9011 13.4536V2.89783C1.9011 2.34982 2.34982 1.9011 2.89783 1.9011Z" fill="#2D2D2D"/>
<path d="M6.57988 8.21259C7.8451 8.21259 8.87125 7.18275 8.87125 5.92121C8.87125 4.65966 7.84142 3.62983 6.57988 3.62983C5.31833 3.62983 4.2885 4.65966 4.2885 5.92121C4.2885 7.18275 5.31465 8.21259 6.57988 8.21259ZM6.57988 4.53094C7.34857 4.53094 7.97015 5.15619 7.97015 5.92121C7.97015 6.68623 7.34489 7.31148 6.57988 7.31148C5.81486 7.31148 5.1896 6.68623 5.1896 5.92121C5.1896 5.15619 5.81118 4.53094 6.57988 4.53094Z" fill="#2D2D2D"/>
<path d="M1 17.1022C1 18.1504 1.85329 19 2.89783 19H17.1022C18.1504 19 19 18.1467 19 17.1022V2.89783C19 1.84961 18.1467 1 17.1022 1H2.89783C1.84961 1 1 1.85329 1 2.89783V17.1022ZM17.1022 18.0989H2.89783C2.34982 18.0989 1.9011 17.6502 1.9011 17.1022V14.7299L5.31426 11.3167L8.2309 14.2333C8.40744 14.4099 8.69064 14.4099 8.86718 14.2333L14.134 8.96649L18.0989 12.9313V17.1022C18.0989 17.6502 17.6502 18.0989 17.1022 18.0989ZM2.89783 1.9011H17.1022C17.6502 1.9011 18.0989 2.34982 18.0989 2.89783V11.6551L14.4503 8.01022C14.2738 7.83367 13.9906 7.83367 13.8141 8.01022L8.5472 13.2771L5.63057 10.3604C5.45403 10.1839 5.17082 10.1839 4.99428 10.3604L1.9011 13.4536V2.89783C1.9011 2.34982 2.34982 1.9011 2.89783 1.9011Z" stroke="#2D2D2D" stroke-width="0.5"/>
<path d="M6.57988 8.21259C7.8451 8.21259 8.87125 7.18275 8.87125 5.92121C8.87125 4.65966 7.84142 3.62983 6.57988 3.62983C5.31833 3.62983 4.2885 4.65966 4.2885 5.92121C4.2885 7.18275 5.31465 8.21259 6.57988 8.21259ZM6.57988 4.53094C7.34857 4.53094 7.97015 5.15619 7.97015 5.92121C7.97015 6.68623 7.34489 7.31148 6.57988 7.31148C5.81486 7.31148 5.1896 6.68623 5.1896 5.92121C5.1896 5.15619 5.81118 4.53094 6.57988 4.53094Z" stroke="#2D2D2D" stroke-width="0.5"/>
</svg>
