<svg width="22" height="20" viewBox="0 0 22 20" fill="none" xmlns="http://www.w3.org/2000/svg">
<path d="M11.5717 8.71489C11.3522 8.92707 11.3522 9.26737 11.5717 9.47956C12.4789 10.3563 12.4789 11.7816 11.5717 12.6584L6.80781 17.2625C5.9006 18.1392 4.42586 18.1392 3.51865 17.2625L2.80199 16.5698C1.89478 15.6931 1.89478 14.2678 2.80199 13.391L7.56589 8.78695C7.78545 8.57476 7.78545 8.23446 7.56589 8.02227C7.34634 7.81008 6.99423 7.81008 6.77467 8.02227L2.01077 12.6264C1.3604 13.2549 1 14.0917 1 14.9804C1 15.8692 1.35625 16.706 2.01077 17.3345L2.72743 18.0271C3.39852 18.6757 4.28087 19 5.16323 19C6.04559 19 6.92794 18.6757 7.59903 18.0271L12.3629 13.4231C13.7051 12.1259 13.7051 10.012 12.3629 8.71489C12.1475 8.5027 11.7913 8.5027 11.5717 8.71489Z" fill="#2D2D2D"/>
<path d="M19.9934 2.66548L19.2767 1.97286C17.9345 0.675713 15.7473 0.675713 14.4051 1.97286L9.64122 6.57694C8.29904 7.87409 8.29904 9.98796 9.64122 11.2851C9.86077 11.4973 10.2129 11.4973 10.4324 11.2851C10.652 11.0729 10.652 10.7326 10.4324 10.5204C9.52522 9.64366 9.52522 8.2184 10.4324 7.34162L15.1963 2.73754C16.1035 1.86076 17.5783 1.86076 18.4855 2.73754L19.2021 3.43015C20.1094 4.30693 20.1094 5.73219 19.2021 6.60897L14.4382 11.213C14.2187 11.4252 14.2187 11.7655 14.4382 11.9777C14.546 12.0818 14.6909 12.1379 14.8318 12.1379C14.9726 12.1379 15.1176 12.0858 15.2253 11.9777L19.9892 7.37365C20.6396 6.74509 21 5.90835 21 5.01956C21 4.13077 20.6437 3.29403 19.9934 2.66548Z" fill="#2D2D2D"/>
<path d="M11.5717 8.71489C11.3522 8.92707 11.3522 9.26737 11.5717 9.47956C12.4789 10.3563 12.4789 11.7816 11.5717 12.6584L6.80781 17.2625C5.9006 18.1392 4.42586 18.1392 3.51865 17.2625L2.80199 16.5698C1.89478 15.6931 1.89478 14.2678 2.80199 13.391L7.56589 8.78695C7.78545 8.57476 7.78545 8.23446 7.56589 8.02227C7.34634 7.81008 6.99423 7.81008 6.77467 8.02227L2.01077 12.6264C1.3604 13.2549 1 14.0917 1 14.9804C1 15.8692 1.35625 16.706 2.01077 17.3345L2.72743 18.0271C3.39852 18.6757 4.28087 19 5.16323 19C6.04559 19 6.92794 18.6757 7.59903 18.0271L12.3629 13.4231C13.7051 12.1259 13.7051 10.012 12.3629 8.71489C12.1475 8.5027 11.7913 8.5027 11.5717 8.71489Z" stroke="#2D2D2D" stroke-width="0.5"/>
<path d="M19.9934 2.66548L19.2767 1.97286C17.9345 0.675713 15.7473 0.675713 14.4051 1.97286L9.64122 6.57694C8.29904 7.87409 8.29904 9.98796 9.64122 11.2851C9.86077 11.4973 10.2129 11.4973 10.4324 11.2851C10.652 11.0729 10.652 10.7326 10.4324 10.5204C9.52522 9.64366 9.52522 8.2184 10.4324 7.34162L15.1963 2.73754C16.1035 1.86076 17.5783 1.86076 18.4855 2.73754L19.2021 3.43015C20.1094 4.30693 20.1094 5.73219 19.2021 6.60897L14.4382 11.213C14.2187 11.4252 14.2187 11.7655 14.4382 11.9777C14.546 12.0818 14.6909 12.1379 14.8318 12.1379C14.9726 12.1379 15.1176 12.0858 15.2253 11.9777L19.9892 7.37365C20.6396 6.74509 21 5.90835 21 5.01956C21 4.13077 20.6437 3.29403 19.9934 2.66548Z" stroke="#2D2D2D" stroke-width="0.5"/>
</svg>
