<svg width="22" height="20" viewBox="0 0 22 20" fill="none" xmlns="http://www.w3.org/2000/svg">
<path d="M18.5332 1H3.46678C2.1088 1 1 2.1068 1 3.47157V13.0458C1 14.4064 2.10465 15.5173 3.46678 15.5173H10.4394V17.8766H6.96346C6.65199 17.8766 6.40282 18.1262 6.40282 18.4383C6.40282 18.7503 6.65199 19 6.96346 19H15.0365C15.348 19 15.5972 18.7503 15.5972 18.4383C15.5972 18.1262 15.348 17.8766 15.0365 17.8766H11.5606V15.5173H18.5332C19.8912 15.5173 21 14.4105 21 13.0458V3.47157C21 2.1068 19.8953 1 18.5332 1ZM3.46678 2.12344H18.5374C19.2766 2.12344 19.8829 2.72677 19.8829 3.47157V11.473H2.12126V3.47157C2.12126 2.72677 2.72342 2.12344 3.46678 2.12344ZM18.5332 14.3939H3.46678C2.72757 14.3939 2.12126 13.7906 2.12126 13.0458V12.5964H19.8787V13.0458C19.8787 13.7864 19.2766 14.3939 18.5332 14.3939Z" fill="#2D2D2D" stroke="#2D2D2D" stroke-width="0.5"/>
</svg>
