<svg width="20" height="20" viewBox="0 0 20 20" fill="none" xmlns="http://www.w3.org/2000/svg">
<path d="M18.2969 9.29688H10.7031V1.70312C10.7031 1.31479 10.3883 1 10 1C9.61166 1 9.29688 1.31479 9.29688 1.70312V9.29688H1.70312C1.31479 9.29688 1 9.61166 1 10C1 10.3883 1.31479 10.7031 1.70312 10.7031H9.29688V18.2969C9.29688 18.6852 9.61166 19 10 19C10.3883 19 10.7031 18.6852 10.7031 18.2969V10.7031H18.2969C18.6852 10.7031 19 10.3883 19 10C19 9.61166 18.6852 9.29688 18.2969 9.29688Z" fill="#2D2D2D" stroke="#2D2D2D" stroke-width="0.4"/>
</svg>
