<svg width="18" height="18" viewBox="0 0 18 18" fill="none" xmlns="http://www.w3.org/2000/svg">
    <g>
        <path d="M1.42388 16.5769C2.37362 17.5266 3.62046 18.001 4.86729 18.001C6.1151 18 7.36292 17.5266 8.31168 16.5769L11.0664 13.8211L9.68905 12.4438L6.93432 15.1995C5.7956 16.3363 3.94191 16.3382 2.80124 15.1995C1.66253 14.0598 1.66253 12.2061 2.80124 11.0664L5.55695 8.31168L4.17958 6.93432L1.42388 9.68905C-0.474626 11.5876 -0.474626 14.6783 1.42388 16.5769ZM16.5769 8.31168C18.4744 6.41318 18.4744 3.32238 16.5769 1.42388C14.6774 -0.4756 11.5866 -0.473652 9.68905 1.42388L6.93432 4.17958L8.31168 5.55695L11.0664 2.80124C12.2061 1.66448 14.0598 1.66253 15.1995 2.80124C16.3382 3.94093 16.3382 5.79463 15.1995 6.93432L12.4438 9.68905L13.8211 11.0664L16.5769 8.31168Z" fill="#2D2D2D"/>
        <path d="M5.55566 13.8225L4.17811 12.4449L12.4444 4.17892L13.8219 5.55652L5.55566 13.8225Z" fill="#2D2D2D"/>
    </g>
</svg>
