<svg width="20" height="16" viewBox="0 0 20 16" fill="none" xmlns="http://www.w3.org/2000/svg">
    <g>
        <path d="M13.5 12C14.8807 12 16 10.8807 16 9.5C16 8.11929 14.8807 7 13.5 7C12.1193 7 11 8.11929 11 9.5C11 10.8807 12.1193 12 13.5 12Z" fill="#2D2D2D"/>
        <path d="M10 9.5C10 8.685 10.396 7.968 11 7.512C10.581 7.194 10.065 7 9.5 7C8.119 7 7 8.119 7 9.5C7 10.881 8.119 12 9.5 12C10.065 12 10.581 11.806 11 11.488C10.396 11.032 10 10.315 10 9.5Z" fill="#2D2D2D"/>
        <path d="M18 0H2C0.897 0 0 0.897 0 2V14C0 15.103 0.897 16 2 16H18C19.103 16 20 15.103 20 14V2C20 0.897 19.103 0 18 0ZM2 14V2H18L18.002 14H2Z" fill="#2D2D2D"/>
    </g>
</svg>
