<svg width="16" height="16" viewBox="0 0 16 16" fill="none" xmlns="http://www.w3.org/2000/svg">
    <path d="M8 0C5.54933 0 3.55556 1.88884 3.55556 4.21053C3.55556 6.53221 5.54933 8.42105 8 8.42105C10.4507 8.42105 12.4444 6.53221 12.4444 4.21053C12.4444 1.88884 10.4507 0 8 0ZM8 6.73684C6.52978 6.73684 5.33333 5.60337 5.33333 4.21053C5.33333 2.81768 6.52978 1.68421 8 1.68421C9.47022 1.68421 10.6667 2.81768 10.6667 4.21053C10.6667 5.60337 9.47022 6.73684 8 6.73684ZM16 16V15.1579C16 11.9082 13.208 9.26316 9.77778 9.26316H6.22222C2.79111 9.26316 0 11.9082 0 15.1579V16H1.77778V15.1579C1.77778 12.8362 3.77156 10.9474 6.22222 10.9474H9.77778C12.2284 10.9474 14.2222 12.8362 14.2222 15.1579V16H16Z" fill="#2D2D2D"/>
</svg>
