<svg width="18" height="16" viewBox="0 0 18 16" fill="none" xmlns="http://www.w3.org/2000/svg">
    <g>
        <path d="M0 8.00001L4.49954 11.5552V8.8888H12.5987V7.11122H4.49954V4.44485L0 8.00001Z" fill="#2D2D2D"/>
        <path d="M9.89992 0C7.73564 0 5.70184 0.832796 4.1729 2.34374L5.44537 3.60049C6.63505 2.42551 8.21709 1.77758 9.89992 1.77758C11.5827 1.77758 13.1648 2.42551 14.3545 3.60049C15.5441 4.77547 16.2002 6.33796 16.2002 8C16.2002 9.66204 15.5441 11.2245 14.3545 12.3995C13.1648 13.5745 11.5827 14.2224 9.89992 14.2224C8.21709 14.2224 6.63505 13.5745 5.44537 12.3995L4.1729 13.6563C5.70184 15.1672 7.73564 16 9.89992 16C12.0642 16 14.098 15.1672 15.6269 13.6563C17.1568 12.1462 18 10.1375 18 8C18 5.86246 17.1568 3.85379 15.6269 2.34374C14.098 0.832796 12.0642 0 9.89992 0Z" fill="#2D2D2D"/>
    </g>
</svg>
