<svg width="18" height="18" viewBox="0 0 18 18" fill="none" xmlns="http://www.w3.org/2000/svg">
    <g>
        <path d="M9.00002 12.6C11.107 12.6 12.8204 10.9854 12.8204 9C12.8204 7.0146 11.107 5.4 9.00002 5.4C6.89306 5.4 5.17961 7.0146 5.17961 9C5.17961 10.9854 6.89306 12.6 9.00002 12.6ZM9.00002 7.2C10.0353 7.2 10.9102 8.0244 10.9102 9C10.9102 9.9756 10.0353 10.8 9.00002 10.8C7.96469 10.8 7.08981 9.9756 7.08981 9C7.08981 8.0244 7.96469 7.2 9.00002 7.2Z" fill="#2D2D2D"/>
        <path d="M0.256041 12.7224L1.21114 14.2794C1.7183 15.1047 2.93892 15.4143 3.81857 14.9364L4.32382 14.661C4.87969 15.0723 5.49 15.4098 6.13469 15.6618V16.2C6.13469 17.1927 6.99142 18 8.0449 18H9.9551C11.0086 18 11.8653 17.1927 11.8653 16.2V15.6618C12.51 15.4098 13.1203 15.0723 13.6762 14.6619L14.1814 14.9373C15.063 15.4143 16.2807 15.1065 16.7898 14.2794L17.744 12.7233C18.2712 11.8638 17.9579 10.7604 17.0458 10.2645L16.5635 10.0017C16.615 9.6678 16.6408 9.3339 16.6408 9C16.6408 8.6661 16.615 8.3313 16.5635 8.0001L17.0458 7.7373C17.9579 7.2405 18.2712 6.138 17.744 5.2785L16.7898 3.7224C16.2827 2.8944 15.063 2.5839 14.1814 3.0636L13.6762 3.339C13.1203 2.9277 12.51 2.5902 11.8653 2.3382V1.8C11.8653 0.8073 11.0086 0 9.9551 0H8.0449C6.99142 0 6.13469 0.8073 6.13469 1.8V2.3382C5.49 2.5902 4.87969 2.9277 4.32382 3.3381L3.81857 3.0627C2.93606 2.5848 1.71735 2.8944 1.21019 3.7215L0.256041 5.2776C-0.271175 6.1371 0.0420985 7.2405 0.954221 7.7364L1.43655 7.9992C1.38497 8.3313 1.35918 8.6661 1.35918 9C1.35918 9.3339 1.38497 9.6678 1.43655 9.9999L0.954221 10.2627C0.0420985 10.7595 -0.271175 11.8629 0.256041 12.7224ZM3.43271 10.2402C3.32478 9.8325 3.26939 9.4149 3.26939 9C3.26939 8.5842 3.32478 8.1666 3.43176 7.7598C3.53491 7.3701 3.35248 6.9633 2.98286 6.7626L1.91028 6.1776L2.86347 4.6215L3.95706 5.2173C4.32382 5.4162 4.78513 5.3658 5.09172 5.0895C5.74406 4.5072 6.53106 4.0716 7.36869 3.8304C7.77078 3.7152 8.0449 3.3651 8.0449 2.97V1.8H9.9551V2.97C9.9551 3.3651 10.2292 3.7152 10.6313 3.8304C11.4689 4.0725 12.2559 4.5072 12.9083 5.0895C13.2149 5.3658 13.6781 5.4153 14.0429 5.2173L15.1356 4.6224L16.0907 6.1785L15.0171 6.7626C14.6475 6.9642 14.4651 7.371 14.5682 7.7598C14.6752 8.1666 14.7306 8.5842 14.7306 9C14.7306 9.4149 14.6752 9.8325 14.5673 10.2402C14.4651 10.6299 14.6475 11.0367 15.0171 11.2374L16.0897 11.8215L15.1365 13.3776L14.0429 12.7827C13.6771 12.5838 13.2149 12.6333 12.9083 12.9105C12.2559 13.4928 11.4689 13.9284 10.6313 14.1696C10.2292 14.2848 9.9551 14.6349 9.9551 15.03L9.95701 16.2H8.0449V15.03C8.0449 14.6349 7.77078 14.2848 7.36869 14.1696C6.53106 13.9275 5.74406 13.4928 5.09172 12.9105C4.91025 12.7467 4.67339 12.663 4.43461 12.663C4.27033 12.663 4.10606 12.7026 3.95706 12.7836L2.86443 13.3794L1.90932 11.8233L2.98286 11.2374C3.35248 11.0367 3.53491 10.6299 3.43271 10.2402Z" fill="#2D2D2D"/>
    </g>
</svg>
