<svg width="24" height="24" viewBox="0 0 24 24" fill="none" xmlns="http://www.w3.org/2000/svg">
    <path d="M3.27329 18.339V5.66102C3.27329 3.08678 4.94178 1 7 1H4.72671C2.66848 1 1 3.08678 1 5.66102V18.339C1 20.9132 2.66848 23 4.72671 23H7C4.94178 23 3.27329 20.9132 3.27329 18.339Z" fill="#CEE1F2"/>
    <path class="hover-white" d="M18.375 24H5.625C2.52338 24 0 21.4766 0 18.375V5.625C0 2.52338 2.52338 0 5.625 0H18.375C21.4766 0 24 2.52338 24 5.625V18.375C24 21.4766 21.4766 24 18.375 24ZM5.625 1.875C3.55725 1.875 1.875 3.55725 1.875 5.625V18.375C1.875 20.4427 3.55725 22.125 5.625 22.125H18.375C20.4427 22.125 22.125 20.4427 22.125 18.375V5.625C22.125 3.55725 20.4427 1.875 18.375 1.875H5.625ZM9.89062 4.73438C9.89062 4.21659 9.47091 3.79688 8.95312 3.79688H5.01562C4.49784 3.79688 4.07812 4.21659 4.07812 4.73438C4.07812 5.25216 4.49784 5.67188 5.01562 5.67188H8.95312C9.47091 5.67188 9.89062 5.25216 9.89062 4.73438ZM18.4688 15.6562C18.4688 15.1385 18.049 14.7188 17.5312 14.7188H9.70312C9.18534 14.7188 8.76562 15.1385 8.76562 15.6562C8.76562 16.174 9.18534 16.5938 9.70312 16.5938H17.5312C18.049 16.5938 18.4688 16.174 18.4688 15.6562ZM19.7344 19.3125C19.7344 18.7947 19.3147 18.375 18.7969 18.375H16.7344C16.2166 18.375 15.7969 18.7947 15.7969 19.3125C15.7969 19.8303 16.2166 20.25 16.7344 20.25H18.7969C19.3147 20.25 19.7344 19.8303 19.7344 19.3125Z" fill="#999FBF"/>
    <path class="hover-white" d="M18.9375 12.9375H12.3281C11.8103 12.9375 11.3906 12.5178 11.3906 12C11.3906 11.4822 11.8103 11.0625 12.3281 11.0625H18.9375C19.4553 11.0625 19.875 11.4822 19.875 12C19.875 12.5178 19.4553 12.9375 18.9375 12.9375ZM16.5938 8.39062C16.5938 7.87284 16.174 7.45312 15.6562 7.45312H6.89062C6.37284 7.45312 5.95312 7.87284 5.95312 8.39062C5.95312 8.90841 6.37284 9.32812 6.89062 9.32812H15.6562C16.174 9.32812 16.5938 8.90841 16.5938 8.39062Z" fill="#999FBF"/>
</svg>