<svg width="40" height="40" viewBox="0 0 40 40" fill="none" xmlns="http://www.w3.org/2000/svg">
    <path fill-rule="evenodd" clip-rule="evenodd" d="M15.6389 39.5178C13.9604 39.1416 12.3378 38.5489 10.8121 37.7546V24.2463H15.6389V35.0666" fill="url(#paint0_linear)"/>
    <path fill-rule="evenodd" clip-rule="evenodd" d="M22.4135 39.8523C21.4359 39.972 20.4507 40.019 19.4661 39.993C18.8304 39.9761 18.2022 39.9269 17.5836 39.8523V19.141H22.4135V35.4995" fill="url(#paint1_linear)"/>
    <path fill-rule="evenodd" clip-rule="evenodd" d="M29.1891 37.7505C27.6629 38.5462 26.0397 39.14 24.3604 39.5171V13.7095H29.1891V32.6983" fill="url(#paint2_linear)"/>
    <path fill-rule="evenodd" clip-rule="evenodd" d="M20.533 0.00717386C31.5395 0.298712 40.2867 9.51596 39.9929 20.5341C39.8168 27.1951 36.3709 33.0232 31.2352 36.5255V30.9221C33.9865 28.0938 35.6853 24.2406 35.6853 20.0012C35.6853 11.3612 28.6398 4.31412 20.0006 4.31412C11.3614 4.31412 4.31354 11.3598 4.31354 20.0012C4.31354 24.2398 6.01281 28.0931 8.76336 30.9213V36.5281C3.33056 32.819 -0.179242 26.5113 0.00707246 19.4678C0.298369 8.46106 9.51778 -0.286295 20.533 0.00717386Z" fill="url(#paint3_linear)"/>
    <defs>
        <linearGradient id="paint0_linear" x1="14.6684" y1="21.1302" x2="2.14885" y2="25.4948" gradientUnits="userSpaceOnUse">
            <stop stop-color="#FF512F"/>
            <stop offset="1" stop-color="#DD2476"/>
        </linearGradient>
        <linearGradient id="paint1_linear" x1="21.4425" y1="14.8848" x2="8.25258" y2="18.2535" gradientUnits="userSpaceOnUse">
            <stop stop-color="#FF512F"/>
            <stop offset="1" stop-color="#DD2476"/>
        </linearGradient>
        <linearGradient id="paint2_linear" x1="28.2183" y1="8.44343" x2="14.7454" y2="11.2239" gradientUnits="userSpaceOnUse">
            <stop stop-color="#FF512F"/>
            <stop offset="1" stop-color="#DD2476"/>
        </linearGradient>
        <linearGradient id="paint3_linear" x1="31.9578" y1="-7.45355" x2="-15.3648" y2="49.7045" gradientUnits="userSpaceOnUse">
            <stop stop-color="#F76552"/>
            <stop offset="1" stop-color="#DD2476"/>
        </linearGradient>
    </defs>
</svg>
