<svg width="20" height="30" viewBox="0 0 20 30" fill="none" xmlns="http://www.w3.org/2000/svg">
    <path d="M14.9742 19.9991C14.3217 20.0077 13.6744 19.8829 13.0718 19.6323C12.4691 19.3818 11.9239 19.0107 11.4694 18.5419C10.7703 17.8446 10.2932 16.9555 10.0983 15.9868C9.90346 15.0182 9.99961 14.0134 10.3746 13.0994C10.7496 12.1854 11.3867 11.4033 12.2053 10.8516C13.024 10.3 13.9875 10.0037 14.9742 10.0001C16.31 9.99395 17.5938 10.5179 18.5449 11.4573C19.3655 12.3014 19.8781 13.3978 20 14.5695H15.2394V15.3646H20C19.9074 16.5442 19.3903 17.6502 18.5449 18.4768C18.0824 18.958 17.5279 19.3408 16.9144 19.6025C16.3009 19.8642 15.641 19.9994 14.9742 20" fill="#0082CD"/>
    <path d="M6.35278 29.9991V25.2309H5.56148V29.9982C4.38774 29.9055 3.28735 29.388 2.46462 28.5419C1.76777 27.8446 1.29221 26.9555 1.09799 25.9868C0.903775 25.0181 0.999616 24.0134 1.37341 23.0994C1.7472 22.1854 2.38218 21.4033 3.19816 20.8516C4.01414 20.3 4.97452 20.0037 5.95802 20.0001C7.28947 19.994 8.56914 20.5179 9.51707 21.4573C9.98654 21.9189 10.3595 22.47 10.6142 23.0784C10.8688 23.6867 11 24.3401 11 25C11 25.66 10.8688 26.3133 10.6142 26.9217C10.3595 27.53 9.98654 28.0812 9.51707 28.5428C8.69471 29.428 7.55798 29.9517 6.35367 30" fill="#80BD00"/>
    <path d="M5.00273 10C4.19835 10.001 3.40561 9.80766 2.69191 9.43639C1.97821 9.06511 1.36463 8.5269 0.90332 7.86748C0.442013 7.20807 0.146622 6.44695 0.0422446 5.64881C-0.0621324 4.85067 0.0275967 4.03911 0.303802 3.28311C0.580006 2.52711 1.03453 1.84902 1.62872 1.30646C2.22292 0.76391 2.93923 0.372937 3.71677 0.166775C4.49432 -0.0393871 5.31012 -0.0546439 6.09482 0.122302C6.87952 0.299247 7.60992 0.663163 8.22396 1.18312L4.87086 4.5386L5.4629 5.13106L8.816 1.77558C9.43211 2.50283 9.82734 3.39136 9.95499 4.33619C10.0826 5.28102 9.9374 6.24267 9.5364 7.10754C9.1354 7.97241 8.4954 8.70435 7.69203 9.2169C6.88866 9.72944 5.95548 10.0012 5.00273 10Z" fill="#003865"/>
</svg>
