<svg width="30" height="30" viewBox="0 0 30 30" fill="none" xmlns="http://www.w3.org/2000/svg">
<rect width="30" height="30" rx="15" fill="#2B9A9C"/>
<path d="M21 22V20.4444C21 19.6193 20.6839 18.828 20.1213 18.2446C19.5587 17.6611 18.7956 17.3333 18 17.3333H12C11.2044 17.3333 10.4413 17.6611 9.87868 18.2446C9.31607 18.828 9 19.6193 9 20.4444V22M18 11.1111C18 12.8293 16.6569 14.2222 15 14.2222C13.3431 14.2222 12 12.8293 12 11.1111C12 9.39289 13.3431 8 15 8C16.6569 8 18 9.39289 18 11.1111Z" stroke="white" stroke-width="1.5" stroke-linecap="round" stroke-linejoin="round"/>
</svg>
