<svg width="24" height="24" viewBox="0 0 24 24" fill="none" xmlns="http://www.w3.org/2000/svg">
    <path d="M3.75 18.375V5.625C3.75 3.03614 5.84864 0.9375 8.4375 0.9375L18.3727 0.900984L18.375 0.890625L5.625 0.9375C3.03614 0.9375 0.9375 3.03614 0.9375 5.625V18.375C0.9375 20.9638 3.03614 23.0625 5.625 23.0625L8.06522 23.0478C5.65045 22.858 3.75 20.8385 3.75 18.375Z" fill="#CEE1F2"/>
    <path class="hover-white" d="M18.375 24H5.625C2.52338 24 0 21.4766 0 18.375V5.625C0 2.52338 2.52338 0 5.625 0H18.375C21.4766 0 24 2.52338 24 5.625V18.375C24 21.4766 21.4766 24 18.375 24ZM5.625 1.875C3.55725 1.875 1.875 3.55725 1.875 5.625V18.375C1.875 20.4427 3.55725 22.125 5.625 22.125H18.375C20.4427 22.125 22.125 20.4427 22.125 18.375V5.625C22.125 3.55725 20.4427 1.875 18.375 1.875H5.625ZM20.25 6.04688C20.25 5.52909 19.8303 5.10938 19.3125 5.10938H4.6875C4.16972 5.10938 3.75 5.52909 3.75 6.04688C3.75 6.56466 4.16972 6.98438 4.6875 6.98438H19.3125C19.8303 6.98438 20.25 6.56466 20.25 6.04688ZM20.2969 14.8125C20.2969 14.2947 19.8772 13.875 19.3594 13.875H13.875C13.3572 13.875 12.9375 14.2947 12.9375 14.8125C12.9375 15.3303 13.3572 15.75 13.875 15.75H19.3594C19.8772 15.75 20.2969 15.3303 20.2969 14.8125ZM11.1094 14.8125C11.1094 14.2947 10.6897 13.875 10.1719 13.875H4.6875C4.16972 13.875 3.75 14.2947 3.75 14.8125C3.75 15.3303 4.16972 15.75 4.6875 15.75H10.1719C10.6897 15.75 11.1094 15.3303 11.1094 14.8125ZM11.1094 18.5625C11.1094 18.0447 10.6897 17.625 10.1719 17.625H4.6875C4.16972 17.625 3.75 18.0447 3.75 18.5625C3.75 19.0803 4.16972 19.5 4.6875 19.5H10.1719C10.6897 19.5 11.1094 19.0803 11.1094 18.5625ZM18.375 18.5625C18.375 18.0447 17.9553 17.625 17.4375 17.625H13.875C13.3572 17.625 12.9375 18.0447 12.9375 18.5625C12.9375 19.0803 13.3572 19.5 13.875 19.5H17.4375C17.9553 19.5 18.375 19.0803 18.375 18.5625Z" fill="#999FBF"/>
    <path class="hover-white" d="M19.3594 12H8.85938C8.34159 12 7.92188 11.5803 7.92188 11.0625C7.92188 10.5447 8.34159 10.125 8.85938 10.125H19.3594C19.8772 10.125 20.2969 10.5447 20.2969 11.0625C20.2969 11.5803 19.8772 12 19.3594 12ZM3.75 10.9688C3.75 11.616 4.27467 12.1406 4.92188 12.1406C5.56908 12.1406 6.09375 11.616 6.09375 10.9688C6.09375 10.3215 5.56908 9.79688 4.92188 9.79688C4.27467 9.79688 3.75 10.3215 3.75 10.9688Z" fill="#999FBF"/>
</svg>
