<svg width="24" height="24" viewBox="0 0 24 24" fill="none" xmlns="http://www.w3.org/2000/svg">
    <path d="M4.63966 18.3769V5.62308C4.63966 3.0353 7.08228 0.9375 10.2368 0.9375H6.87355C3.71008 0.9375 1.14563 3.03614 1.14563 5.625V18.375C1.14563 20.9638 3.71008 23.0625 6.87355 23.0625H10.2368C7.08228 23.0625 4.63966 20.9647 4.63966 18.3769Z" fill="#CEE1F2"/>
    <path class="hover-white" d="M17.1265 24H6.87351C3.08346 24 0 21.4766 0 18.375V5.625C0 2.52338 3.08346 0 6.87351 0H17.1265C20.9165 0 24 2.52338 24 5.625V18.375C24 21.4766 20.9165 24 17.1265 24ZM6.87351 1.875C4.34681 1.875 2.29117 3.55725 2.29117 5.625V18.375C2.29117 20.4427 4.34681 22.125 6.87351 22.125H17.1265C19.6532 22.125 21.7088 20.4427 21.7088 18.375V5.625C21.7088 3.55725 19.6532 1.875 17.1265 1.875H6.87351ZM15.3508 14.0156V8.95312C15.3508 8.43534 14.838 8.01562 14.2053 8.01562C13.5725 8.01562 13.0597 8.43534 13.0597 8.95312V14.0156C13.0597 14.5334 13.5725 14.9531 14.2053 14.9531C14.838 14.9531 15.3508 14.5334 15.3508 14.0156ZM19.4749 14.0156V11.7656C19.4749 11.2478 18.9621 10.8281 18.3294 10.8281C17.6966 10.8281 17.1838 11.2478 17.1838 11.7656V14.0156C17.1838 14.5334 17.6966 14.9531 18.3294 14.9531C18.9621 14.9531 19.4749 14.5334 19.4749 14.0156ZM6.93079 14.0625V10.4062C6.93079 9.88847 6.41791 9.46875 5.7852 9.46875C5.1525 9.46875 4.63962 9.88847 4.63962 10.4062V14.0625C4.63962 14.5803 5.1525 15 5.7852 15C6.41791 15 6.93079 14.5803 6.93079 14.0625Z" fill="#999FBF"/>
    <path class="hover-white" d="M13.5179 18.8438C13.5179 19.491 12.8768 20.0156 12.0859 20.0156C11.2951 20.0156 10.654 19.491 10.654 18.8438C10.654 18.1965 11.2951 17.6719 12.0859 17.6719C12.8768 17.6719 13.5179 18.1965 13.5179 18.8438ZM11.1695 14.0625V6.1875C11.1695 5.66972 10.6566 5.25 10.0239 5.25C9.39117 5.25 8.8783 5.66972 8.8783 6.1875V14.0625C8.8783 14.5803 9.39117 15 10.0239 15C10.6566 15 11.1695 14.5803 11.1695 14.0625Z" fill="#999FBF"/>
</svg>
