<svg width="24" height="24" viewBox="0 0 24 24" fill="none" xmlns="http://www.w3.org/2000/svg">
    <path d="M3.75 18.375V5.625C3.75 3.03614 5.84864 0.9375 8.4375 0.9375L18.3727 0.900984L18.375 0.890625L5.625 0.9375C3.03614 0.9375 0.9375 3.03614 0.9375 5.625V18.375C0.9375 20.9638 3.03614 23.0625 5.625 23.0625L8.06522 23.0478C5.65045 22.858 3.75 20.8385 3.75 18.375Z" fill="#CEE1F2"/>
    <path class="hover-white" d="M18.375 24H5.625C2.52338 24 0 21.4766 0 18.375V5.625C0 2.52338 2.52338 0 5.625 0H18.375C21.4766 0 24 2.52338 24 5.625V18.375C24 21.4766 21.4766 24 18.375 24ZM5.625 1.875C3.55725 1.875 1.875 3.55725 1.875 5.625V18.375C1.875 20.4427 3.55725 22.125 5.625 22.125H18.375C20.4427 22.125 22.125 20.4427 22.125 18.375V5.625C22.125 3.55725 20.4427 1.875 18.375 1.875H5.625ZM20.25 6.04688C20.25 5.52909 19.8303 5.10938 19.3125 5.10938H4.6875C4.16972 5.10938 3.75 5.52909 3.75 6.04688C3.75 6.56466 4.16972 6.98438 4.6875 6.98438H19.3125C19.8303 6.98438 20.25 6.56466 20.25 6.04688Z" fill="#999FBF"/>
    <path class="hover-white" d="M16.4668 16.3055L15.8422 15.9307C15.9646 15.5483 16.0313 15.1412 16.0313 14.7188C16.0313 14.2962 15.9646 13.8892 15.8422 13.5068L16.4668 13.132C16.9108 12.8656 17.0547 12.2897 16.7883 11.8458C16.5218 11.4017 15.9458 11.2577 15.5021 11.5243L14.866 11.9059C14.3562 11.3949 13.7084 11.0222 12.9844 10.8469V10.0312C12.9844 9.51347 12.5647 9.09375 12.0469 9.09375C11.5291 9.09375 11.1094 9.51347 11.1094 10.0312V10.8468C10.3689 11.0262 9.70873 11.4127 9.19367 11.9416L8.498 11.5242C8.05414 11.2578 7.47819 11.4017 7.2118 11.8457C6.94536 12.2897 7.08936 12.8656 7.53331 13.1319L8.23662 13.5539C8.1237 13.9226 8.06253 14.3136 8.06253 14.7188C8.06253 15.1238 8.1237 15.5149 8.23662 15.8835L7.53331 16.3055C7.08931 16.5719 6.94536 17.1478 7.21175 17.5917C7.38758 17.8847 7.69808 18.047 8.01655 18.047C8.1807 18.047 8.34701 18.0039 8.498 17.9133L9.19372 17.4959C9.70873 18.0249 10.3689 18.4113 11.1094 18.5907V19.4062C11.1094 19.924 11.5291 20.3438 12.0469 20.3438C12.5647 20.3438 12.9844 19.924 12.9844 19.4062V18.5907C13.7084 18.4153 14.3561 18.0426 14.866 17.5317L15.5021 17.9133C15.6531 18.0039 15.8194 18.0471 15.9835 18.0471C16.302 18.0471 16.6125 17.8847 16.7883 17.5918C17.0547 17.1477 16.9108 16.5719 16.4668 16.3055ZM12.0469 16.8281C10.8838 16.8281 9.93753 15.8819 9.93753 14.7188C9.93753 13.5556 10.8838 12.6094 12.0469 12.6094C13.21 12.6094 14.1563 13.5556 14.1563 14.7188C14.1563 15.8819 13.21 16.8281 12.0469 16.8281Z" fill="#999FBF"/>
</svg>
