<svg width="24" height="24" viewBox="0 0 24 24" fill="none" xmlns="http://www.w3.org/2000/svg">
    <path d="M13.3125 22.636C12.9103 22.9053 12.5204 23.0625 12 23.0625C10.602 23.0625 9.46875 21.9292 9.46875 20.5312V16.6875C9.46875 15.2895 10.602 14.1562 12 14.1562C12.5204 14.1562 12.9103 14.3135 13.3125 14.5828C12.6342 15.0368 12.1875 15.8099 12.1875 16.6875V20.5312C12.1875 21.4088 12.6342 22.1819 13.3125 22.636ZM20.7188 20.5312V12.3281C20.7188 11.4506 21.1655 10.6775 21.8438 10.2234C21.4415 9.95409 21.0517 9.79688 20.5312 9.79688C19.1332 9.79688 18 10.9301 18 12.3281V20.5312C18 21.9292 19.1332 23.0625 20.5312 23.0625C21.0517 23.0625 21.4415 22.9053 21.8438 22.636C21.1655 22.1819 20.7188 21.4088 20.7188 20.5312ZM3.65625 20.5312V11.625C3.65625 10.7475 4.10297 9.97439 4.78125 9.52027C4.37902 9.25102 3.98916 9.09375 3.46875 9.09375C2.0708 9.09375 0.9375 10.227 0.9375 11.625V20.5312C0.9375 21.9292 2.0708 23.0625 3.46875 23.0625C3.98916 23.0625 4.37902 22.9053 4.78125 22.636C4.10297 22.1819 3.65625 21.4088 3.65625 20.5312Z" fill="#CEE1F2"/>
    <path class="hover-white" d="M3.46875 24C1.55606 24 0 22.4439 0 20.5312V11.625C0 9.71231 1.55606 8.15625 3.46875 8.15625C5.38144 8.15625 6.9375 9.71231 6.9375 11.625V20.5312C6.9375 22.4439 5.38144 24 3.46875 24ZM3.46875 10.0312C2.58994 10.0312 1.875 10.7462 1.875 11.625V20.5312C1.875 21.4101 2.58994 22.125 3.46875 22.125C4.34756 22.125 5.0625 21.4101 5.0625 20.5312V11.625C5.0625 10.7462 4.34756 10.0312 3.46875 10.0312ZM12 24C10.0873 24 8.53125 22.4439 8.53125 20.5312V16.6875C8.53125 14.7748 10.0873 13.2188 12 13.2188C13.9127 13.2188 15.4688 14.7748 15.4688 16.6875V20.5312C15.4688 22.4439 13.9127 24 12 24ZM12 15.0938C11.1212 15.0938 10.4062 15.8087 10.4062 16.6875V20.5312C10.4062 21.4101 11.1212 22.125 12 22.125C12.8788 22.125 13.5938 21.4101 13.5938 20.5312V16.6875C13.5938 15.8087 12.8788 15.0938 12 15.0938ZM20.5312 24C18.6186 24 17.0625 22.4439 17.0625 20.5312V12.3281C17.0625 10.4154 18.6186 8.85938 20.5312 8.85938C22.4439 8.85938 24 10.4154 24 12.3281V20.5312C24 22.4439 22.4439 24 20.5312 24ZM20.5312 10.7344C19.6524 10.7344 18.9375 11.4493 18.9375 12.3281V20.5312C18.9375 21.4101 19.6524 22.125 20.5312 22.125C21.4101 22.125 22.125 21.4101 22.125 20.5312V12.3281C22.125 11.4494 21.4101 10.7344 20.5312 10.7344Z" fill="#999FBF"/>
    <path class="hover-white" d="M12.887 11.4352C12.1719 11.4352 11.4535 11.2035 10.8546 10.7299C10.8378 10.7166 4.85348 5.28136 4.85348 5.28136C4.32089 4.87678 3.58148 4.90195 3.07748 5.343L1.59726 6.80714C1.22911 7.17127 0.635483 7.16798 0.271498 6.79992C-0.0926734 6.43177 -0.0893921 5.83819 0.278717 5.47411C0.278717 5.47411 1.79808 3.97177 1.80909 3.96183C3.00173 2.88919 4.78055 2.83289 6.03867 3.82786C6.0554 3.84113 12.0397 9.27637 12.0397 9.27637C12.6192 9.71634 13.4465 9.64003 13.9352 9.09698C13.941 9.09047 13.947 9.08405 13.953 9.07772L19.1496 3.61922C19.5066 3.24422 20.1 3.22959 20.475 3.58664C20.85 3.94364 20.8646 4.53703 20.5076 4.91208L15.3194 10.3617C14.676 11.0704 13.7842 11.4351 12.887 11.4352ZM24.0005 5.34375V2.8125C24.0005 1.26169 22.7388 0 21.188 0H18.6567C18.1389 0 17.7192 0.419719 17.7192 0.9375C17.7192 1.45528 18.1389 1.875 18.6567 1.875H21.188C21.7049 1.875 22.1255 2.29556 22.1255 2.8125V5.34375C22.1255 5.86153 22.5452 6.28125 23.063 6.28125C23.5807 6.28125 24.0005 5.86153 24.0005 5.34375Z" fill="#999FBF"/>
</svg>
