<svg width="20" height="20" viewBox="0 0 20 20" fill="none" xmlns="http://www.w3.org/2000/svg">
<path d="M20 10C20 4.47715 15.5228 0 10 0C4.47715 0 0 4.47715 0 10C0 15.5228 4.47715 20 10 20C15.5228 20 20 15.5228 20 10Z" fill="#2B9A9C"/>
<path d="M12.0519 6.3342C12.1579 6.2283 12.2837 6.1442 12.4221 6.0869C12.5606 6.0295 12.709 6 12.8588 6C13.0087 6 13.1571 6.0295 13.2955 6.0869C13.434 6.1442 13.5598 6.2283 13.6658 6.3342C13.7717 6.4402 13.8558 6.566 13.9131 6.7045C13.9705 6.8429 14 6.9913 14 7.1412C14 7.291 13.9705 7.4394 13.9131 7.5779C13.8558 7.7163 13.7717 7.8421 13.6658 7.9481L8.219 13.3948L6 14L6.6052 11.781L12.0519 6.3342Z" stroke="white" stroke-width="1.3" stroke-linecap="round" stroke-linejoin="round"/>
</svg>
