<svg width="76" height="76" viewBox="0 0 76 76" fill="none" xmlns="http://www.w3.org/2000/svg">
    <g filter="url(#filter0_d)">
        <rect x="20" y="14" width="36" height="36" rx="5" fill="#5B76F9"/>
    </g>
    <path d="M32.5 28.3158C32.5 30.1439 34.0703 31.6316 36 31.6316C37.9297 31.6316 39.5 30.1439 39.5 28.3158C39.5 26.4877 37.9297 25 36 25C34.0703 25 32.5 26.4877 32.5 28.3158ZM42.2222 39H43V38.2632C43 35.4197 40.557 33.1053 37.5556 33.1053H34.4444C31.4422 33.1053 29 35.4197 29 38.2632V39H29.7778H30.5556H41.4444H42.2222Z" fill="white"/>
    <path opacity="0.6" d="M36.5 28.3158C36.5 30.1439 38.0703 31.6316 40 31.6316C41.9297 31.6316 43.5 30.1439 43.5 28.3158C43.5 26.4877 41.9297 25 40 25C38.0703 25 36.5 26.4877 36.5 28.3158ZM46.2222 39H47V38.2632C47 35.4197 44.557 33.1053 41.5556 33.1053H38.4444C35.4422 33.1053 33 35.4197 33 38.2632V39H33.7778H34.5556H45.4444H46.2222Z" fill="white"/>
    <defs>
        <filter id="filter0_d" x="0" y="0" width="76" height="76" filterUnits="userSpaceOnUse" color-interpolation-filters="sRGB">
            <feFlood flood-opacity="0" result="BackgroundImageFix"/>
            <feColorMatrix in="SourceAlpha" type="matrix" values="0 0 0 0 0 0 0 0 0 0 0 0 0 0 0 0 0 0 127 0"/>
            <feOffset dy="6"/>
            <feGaussianBlur stdDeviation="10"/>
            <feColorMatrix type="matrix" values="0 0 0 0 0.168627 0 0 0 0 0.603922 0 0 0 0 0.611765 0 0 0 0.2 0"/>
            <feBlend mode="normal" in2="BackgroundImageFix" result="effect1_dropShadow"/>
            <feBlend mode="normal" in="SourceGraphic" in2="effect1_dropShadow" result="shape"/>
        </filter>
    </defs>
</svg>
